<svg width="868" height="388" viewBox="0 0 868 388" fill="none" xmlns="http://www.w3.org/2000/svg">
<path d="M753.806 380.114V151.086C753.806 140.348 754.142 127.596 754.813 112.831C755.484 97.7297 756.155 84.6424 756.826 73.5685H754.31C749.947 83.6357 745.249 93.7028 740.216 103.77C735.182 113.837 729.981 124.072 724.611 134.475L666.725 227.093H867.062V283.469H594.745V233.133L733.672 7.125H822.767V380.114H753.806Z" fill="#F8F7FF"/>
<path d="M435.762 387.161C410.594 387.161 388.446 379.947 369.318 365.517C350.526 350.752 335.761 328.939 325.023 300.08C314.62 270.885 309.418 234.811 309.418 191.858C309.418 149.24 314.62 113.837 325.023 85.649C335.761 57.1253 350.526 35.8165 369.318 21.7224C388.446 7.62833 410.594 0.581299 435.762 0.581299C461.265 0.581299 483.413 7.79612 502.205 22.2257C520.997 36.3198 535.595 57.4609 545.997 85.649C556.736 113.837 562.105 149.24 562.105 191.858C562.105 234.811 556.736 270.885 545.997 300.08C535.595 328.939 520.997 350.752 502.205 365.517C483.413 379.947 461.265 387.161 435.762 387.161ZM435.762 329.275C446.836 329.275 456.567 325.08 464.957 316.691C473.346 308.302 479.89 294.208 484.588 274.409C489.286 254.274 491.635 226.758 491.635 191.858C491.635 157.294 489.286 130.28 484.588 110.817C479.89 91.0182 473.346 77.2597 464.957 69.5415C456.567 61.4878 446.836 57.4609 435.762 57.4609C425.359 57.4609 415.795 61.4878 407.07 69.5415C398.681 77.2597 391.969 91.0182 386.936 110.817C381.902 130.28 379.385 157.294 379.385 191.858C379.385 226.758 381.902 254.274 386.936 274.409C391.969 294.208 398.681 308.302 407.07 316.691C415.795 325.08 425.359 329.275 435.762 329.275Z" fill="#F8F7FF"/>
<path d="M159.999 380.114V151.086C159.999 140.348 160.335 127.596 161.006 112.831C161.677 97.7297 162.348 84.6424 163.02 73.5685H160.503C156.14 83.6357 151.442 93.7028 146.409 103.77C141.375 113.837 136.174 124.072 130.805 134.475L72.9182 227.093H273.255V283.469H0.937744V233.133L139.865 7.125H228.96V380.114H159.999Z" fill="#F8F7FF"/>
</svg>
