<svg width="195" height="421" viewBox="0 0 195 421" fill="none" xmlns="http://www.w3.org/2000/svg">
<ellipse cx="97.3786" cy="378.5" rx="97.0954" ry="42" fill="#28005F"/>
<ellipse cx="97.5" cy="382.7" rx="97.0954" ry="37.8" fill="#6500EE"/>
<g clip-path="url(#clip0_4176_2558)">
<path d="M135.438 110C136.69 110 137.718 108.972 137.718 107.684V107.117C137.718 88.8268 116.734 67.5 98.7391 67.5C116.734 67.5 137.718 46.1732 137.718 27.883H137.706V27.3158C137.706 26.0398 136.702 25 135.426 25H60.4461C59.1701 25 58.1658 26.0279 58.1658 27.3158V28.9936C59.5954 35.7638 60.5997 50.4622 60.5997 67.5C60.5997 84.5378 59.6073 99.2243 58.1658 106.006V107.542C58.1658 108.818 59.1701 109.858 60.4461 109.858L135.45 110H135.438Z" fill="url(#paint0_linear_4176_2558)"/>
<path d="M93.1323 40.4202C92.5097 38.9841 91.6085 37.7372 90.4761 36.7148C89.3615 35.6925 88.0038 34.8947 86.4386 34.3333C84.8912 33.7837 83.1718 33.5 81.3279 33.5C79.484 33.5 77.7469 33.7778 76.1995 34.3333C74.6461 34.8947 73.2884 35.6925 72.156 36.7267C71.0295 37.749 70.1402 38.996 69.5176 40.432C68.8951 41.8621 68.575 43.4518 68.575 45.1597C68.575 46.8676 68.8951 48.4809 69.5176 49.9229C70.1402 51.3708 71.0295 52.6177 72.156 53.6637C73.2825 54.6979 74.6461 55.5193 76.1935 56.0926C77.7469 56.654 79.4722 56.9435 81.3279 56.9435C83.1836 56.9435 84.8971 56.6658 86.4445 56.1044C88.0097 55.5252 89.3734 54.7097 90.488 53.6696C91.6204 52.6295 92.5097 51.3767 93.1323 49.9288C93.7548 48.4809 94.0749 46.8794 94.0749 45.1656C94.0749 43.4518 93.7548 41.874 93.1323 40.4379H93.1263L93.1323 40.4202Z" fill="white"/>
<path d="M90.3108 42.5214C89.9581 41.7077 89.4474 41.0011 88.8057 40.4217C88.1741 39.8424 87.4047 39.3903 86.5177 39.0722C85.6409 38.7607 84.6666 38.6 83.6217 38.6C82.5768 38.6 81.5924 38.7574 80.7156 39.0722C79.8353 39.3903 79.066 39.8424 78.4243 40.4284C77.7859 41.0078 77.282 41.7144 76.9292 42.5281C76.5764 43.3385 76.395 44.2393 76.395 45.2072C76.395 46.175 76.5764 47.0892 76.9292 47.9063C77.282 48.7267 77.7859 49.4333 78.4243 50.0261C79.0626 50.6121 79.8353 51.0776 80.7122 51.4024C81.5924 51.7206 82.5701 51.8847 83.6217 51.8847C84.6733 51.8847 85.6442 51.7273 86.5211 51.4091C87.4081 51.0809 88.1808 50.6188 88.8124 50.0294C89.4541 49.44 89.9581 48.7301 90.3108 47.9096C90.6636 47.0892 90.845 46.1817 90.845 45.2105C90.845 44.2393 90.6636 43.3452 90.3108 42.5315H90.3075L90.3108 42.5214Z" fill="#222222"/>
</g>
<path d="M11 248V105.5" stroke="#3D008F" stroke-width="2"/>
<path d="M191 143V0.5" stroke="#3D008F" stroke-width="2"/>
<path d="M104 302.5V213.5" stroke="#3D008F" stroke-width="2"/>
<defs>
<linearGradient id="paint0_linear_4176_2558" x1="109.68" y1="25.5553" x2="86.5811" y2="111.229" gradientUnits="userSpaceOnUse">
<stop stop-color="#CD65FD"/>
<stop offset="0.31" stop-color="#A53EF5"/>
<stop offset="1" stop-color="#6B0AE5"/>
</linearGradient>
<clipPath id="clip0_4176_2558">
<rect width="79.73" height="85" fill="white" transform="translate(58.0349 25)"/>
</clipPath>
</defs>
</svg>
