<svg width="16" height="16" viewBox="0 0 16 16" fill="none" xmlns="http://www.w3.org/2000/svg">
<g clip-path="url(#clip0_1270_5007)">
<g clip-path="url(#clip1_1270_5007)">
<path d="M14.9932 16C15.227 16 15.4189 15.8065 15.4189 15.5641V15.4573C15.4189 12.0145 11.5017 8 8.14246 8C11.5017 8 15.4189 3.98554 15.4189 0.542674H15.4167V0.435919C15.4167 0.195719 15.2292 0 14.991 0H0.994051C0.75584 0 0.568359 0.193495 0.568359 0.435919V0.751737C0.835244 2.02613 1.02272 4.79288 1.02272 8C1.02272 11.2071 0.83745 13.9716 0.568359 15.2483V15.5374C0.568359 15.7776 0.75584 15.9733 0.994051 15.9733L14.9954 16H14.9932Z" fill="url(#paint0_linear_1270_5007)"/>
<path d="M7.09599 2.90272C6.97978 2.63241 6.81155 2.39769 6.60016 2.20524C6.39208 2.0128 6.13863 1.86262 5.84644 1.75695C5.55757 1.65349 5.23661 1.6001 4.8924 1.6001C4.54819 1.6001 4.2239 1.65238 3.93503 1.75695C3.64506 1.86262 3.39161 2.0128 3.18021 2.20747C2.96992 2.39992 2.80391 2.63463 2.6877 2.90495C2.57148 3.17415 2.51172 3.47338 2.51172 3.79487C2.51172 4.11635 2.57148 4.42004 2.6877 4.69147C2.80391 4.964 2.96992 5.19872 3.18021 5.39562C3.3905 5.59029 3.64506 5.74491 3.93393 5.85281C4.2239 5.95849 4.54598 6.013 4.8924 6.013C5.23882 6.013 5.55868 5.96072 5.84755 5.85504C6.13974 5.74602 6.39429 5.59251 6.60237 5.39673C6.81376 5.20095 6.97978 4.96512 7.09599 4.69258C7.2122 4.42004 7.27197 4.11858 7.27197 3.79598C7.27197 3.47338 7.2122 3.17637 7.09599 2.90606H7.09488L7.09599 2.90272Z" fill="white"/>
<path d="M6.56846 3.29821C6.5026 3.14503 6.40727 3.01203 6.28748 2.90298C6.16958 2.79392 6.02595 2.70882 5.86038 2.64894C5.69669 2.59032 5.51481 2.56006 5.31975 2.56006C5.1247 2.56006 4.94094 2.58969 4.77725 2.64894C4.61293 2.70882 4.46931 2.79392 4.34952 2.90424C4.23035 3.01329 4.13628 3.1463 4.07042 3.29947C4.00457 3.45202 3.9707 3.62159 3.9707 3.80376C3.9707 3.98594 4.00457 4.15803 4.07042 4.31183C4.13628 4.46627 4.23035 4.59928 4.34952 4.71085C4.46868 4.82117 4.61293 4.90879 4.77662 4.96993C4.94094 5.02982 5.12345 5.0607 5.31975 5.0607C5.51606 5.0607 5.69731 5.03108 5.86101 4.97119C6.02658 4.90942 6.17083 4.82243 6.28874 4.71148C6.40853 4.60054 6.5026 4.4669 6.56846 4.31246C6.63431 4.15803 6.66818 3.9872 6.66818 3.80439C6.66818 3.62159 6.63431 3.45328 6.56846 3.3001H6.56783L6.56846 3.29821Z" fill="#222222"/>
</g>
</g>
<defs>
<linearGradient id="paint0_linear_1270_5007" x1="10.1849" y1="0.104531" x2="5.8055" y2="16.213" gradientUnits="userSpaceOnUse">
<stop stop-color="#CD65FD"/>
<stop offset="0.31" stop-color="#A53EF5"/>
<stop offset="1" stop-color="#6B0AE5"/>
</linearGradient>
<clipPath id="clip0_1270_5007">
<rect width="16" height="16" fill="white"/>
</clipPath>
<clipPath id="clip1_1270_5007">
<rect width="14.8837" height="16" fill="white" transform="translate(0.544922)"/>
</clipPath>
</defs>
</svg>
