<svg width="25" height="25" viewBox="0 0 25 25" fill="none" xmlns="http://www.w3.org/2000/svg">
<path d="M21.5 12.6246C21.5 12.0193 21.4465 11.4446 21.3545 10.885H12.6956V14.3408H17.6535C17.4311 15.475 16.7801 16.4326 15.8142 17.0842V19.3829H18.7722C20.504 17.7815 21.5 15.421 21.5 12.6241V12.6246Z" fill="#4285F4"/>
<path d="M12.6956 21.613C15.1782 21.613 17.255 20.7853 18.7722 19.3829L15.8142 17.0843C14.9865 17.636 13.9369 17.9733 12.6956 17.9733C10.2972 17.9733 8.26667 16.3563 7.53873 14.1725H4.48828V16.5402C5.99769 19.544 9.10117 21.613 12.6951 21.613H12.6956Z" fill="#34A853"/>
<path d="M7.53823 14.1725C7.34651 13.6207 7.24725 13.0309 7.24725 12.4178C7.24725 11.8047 7.3543 11.215 7.53823 10.6632V8.29541H4.48827C3.86008 9.53622 3.5 10.9313 3.5 12.4178C3.5 13.9044 3.86008 15.2989 4.48827 16.5402L7.53823 14.1725Z" fill="#FBBC05"/>
<path d="M12.6956 6.86188C14.0518 6.86188 15.2629 7.32949 16.2205 8.24136L18.8413 5.62058C17.255 4.13404 15.1782 3.22217 12.6956 3.22217C9.10166 3.22217 5.99818 5.29116 4.48828 8.29489L7.53824 10.6626C8.26618 8.47882 10.2967 6.86188 12.6951 6.86188H12.6956Z" fill="#EA4335"/>
</svg>
